# xmcd
#
# Track frame offsets:
# 150
# 14522
# 26620
# 41725
# 59067
# 68865
# 83927
# 96532
# 111535
# 124207
# 141465
#
# Disc length: 2085 seconds
#
#
# Revision: 0
# Processed by: cddbd v1.5.1PL0 Copyright (c) Steve Scherf et al.
# Submitted via: FreeRIP 2.70 
#
DISCID=ae08230b
DTITLE=Craig Carter - To Ruth With Love
DYEAR=1991
DGENRE=Country
TTITLE0=Dou You Feel It In Your Heart
TTITLE1=I could Be In Your Arms Tonight
TTITLE2=Summer Wine
TTITLE3=Desert Skies
TTITLE4=Meanwhile Back At The Ranch
TTITLE5=Sometime Whenever
TTITLE6=From Your Heart And From Your Soul
TTITLE7=Last Night Down In San Antone
TTITLE8=Unless You Count the Pain
TTITLE9=Riding A Rainbow
TTITLE10=Cowboy in My Dreams
EXTD=
EXTT0=
EXTT1=
EXTT2=
EXTT3=
EXTT4=
EXTT5=
EXTT6=
EXTT7=
EXTT8=
EXTT9=
EXTT10=
PLAYORDER=
